<mxfile host="65bd71144e">
    <diagram id="dr7IO_p_2Tej0q03x02P" name="Page-1">
        <mxGraphModel dx="1332" dy="922" grid="1" gridSize="10" guides="1" tooltips="1" connect="1" arrows="1" fold="1" page="1" pageScale="1" pageWidth="850" pageHeight="1100" math="0" shadow="0">
            <root>
                <mxCell id="0"/>
                <mxCell id="1" parent="0"/>
                <mxCell id="8" style="edgeStyle=none;html=1;fontFamily=Tahoma;fontSize=15;" edge="1" parent="1" source="2" target="6">
                    <mxGeometry relative="1" as="geometry"/>
                </mxCell>
                <mxCell id="2" value="Next js" style="whiteSpace=wrap;html=1;aspect=fixed;fillColor=#0FA99F;fontColor=#ffffff;strokeColor=#2D7600;fontFamily=Tahoma;fontSize=14;" vertex="1" parent="1">
                    <mxGeometry x="70" y="400" width="230" height="230" as="geometry"/>
                </mxCell>
                <mxCell id="9" value="" style="edgeStyle=none;html=1;fontFamily=Tahoma;fontSize=15;" edge="1" parent="1" source="3" target="2">
                    <mxGeometry relative="1" as="geometry"/>
                </mxCell>
                <mxCell id="3" value="Front End" style="text;html=1;align=center;verticalAlign=middle;resizable=0;points=[];autosize=1;strokeColor=none;fillColor=none;fontFamily=Tahoma;fontSize=15;" vertex="1" parent="1">
                    <mxGeometry x="140" y="650" width="90" height="30" as="geometry"/>
                </mxCell>
                <mxCell id="12" style="edgeStyle=none;html=1;entryX=0;entryY=0.5;entryDx=0;entryDy=0;fontFamily=Tahoma;fontSize=15;" edge="1" parent="1" source="6" target="11">
                    <mxGeometry relative="1" as="geometry"/>
                </mxCell>
                <mxCell id="6" value="NEXT JS API" style="ellipse;whiteSpace=wrap;html=1;aspect=fixed;fillColor=#1ba1e2;fontColor=#ffffff;strokeColor=#006EAF;fontFamily=Tahoma;fontSize=15;" vertex="1" parent="1">
                    <mxGeometry x="310" y="150" width="120" height="120" as="geometry"/>
                </mxCell>
                <mxCell id="14" style="edgeStyle=none;html=1;fontFamily=Tahoma;fontSize=15;" edge="1" parent="1" source="7" target="6">
                    <mxGeometry relative="1" as="geometry"/>
                </mxCell>
                <mxCell id="7" value="Serverless&lt;br style=&quot;font-size: 15px;&quot;&gt;Cloud&lt;br style=&quot;font-size: 15px;&quot;&gt;Functions" style="text;html=1;align=center;verticalAlign=middle;resizable=0;points=[];autosize=1;strokeColor=none;fillColor=none;fontFamily=Tahoma;fontSize=15;" vertex="1" parent="1">
                    <mxGeometry x="325" y="55" width="90" height="70" as="geometry"/>
                </mxCell>
                <mxCell id="11" value="Open AI&amp;nbsp;" style="rounded=1;whiteSpace=wrap;html=1;fillColor=#fa6800;fontColor=#ffffff;strokeColor=#C73500;fontFamily=Tahoma;fontSize=14;" vertex="1" parent="1">
                    <mxGeometry x="680" y="180" width="120" height="60" as="geometry"/>
                </mxCell>
                <mxCell id="15" style="edgeStyle=none;html=1;fontFamily=Tahoma;fontSize=15;" edge="1" parent="1" source="13">
                    <mxGeometry relative="1" as="geometry">
                        <mxPoint x="555" y="210" as="targetPoint"/>
                    </mxGeometry>
                </mxCell>
                <mxCell id="13" value="Langchain /&lt;br style=&quot;font-size: 15px;&quot;&gt;API Request" style="text;html=1;align=center;verticalAlign=middle;resizable=0;points=[];autosize=1;strokeColor=none;fillColor=none;fontFamily=Tahoma;fontSize=15;" vertex="1" parent="1">
                    <mxGeometry x="505" y="135" width="100" height="50" as="geometry"/>
                </mxCell>
                <mxCell id="19" style="edgeStyle=none;html=1;entryX=0.5;entryY=0;entryDx=0;entryDy=0;fontFamily=Tahoma;fontSize=15;" edge="1" parent="1" source="16" target="2">
                    <mxGeometry relative="1" as="geometry"/>
                </mxCell>
                <mxCell id="16" value="Firebase&amp;nbsp;&lt;br style=&quot;font-size: 15px;&quot;&gt;Database/ Storage" style="rounded=0;whiteSpace=wrap;html=1;fillColor=#76608a;fontColor=#ffffff;strokeColor=#432D57;fontFamily=Tahoma;fontSize=15;" vertex="1" parent="1">
                    <mxGeometry x="125" y="160" width="120" height="70" as="geometry"/>
                </mxCell>
                <mxCell id="21" style="edgeStyle=none;html=1;fontFamily=Tahoma;fontSize=15;" edge="1" parent="1" source="20">
                    <mxGeometry relative="1" as="geometry">
                        <mxPoint x="180" y="320" as="targetPoint"/>
                    </mxGeometry>
                </mxCell>
                <mxCell id="20" value="Client SDK" style="text;html=1;align=center;verticalAlign=middle;resizable=0;points=[];autosize=1;strokeColor=none;fillColor=none;fontFamily=Tahoma;fontSize=15;" vertex="1" parent="1">
                    <mxGeometry x="75" y="305" width="90" height="30" as="geometry"/>
                </mxCell>
            </root>
        </mxGraphModel>
    </diagram>
</mxfile>